<svg width="203" height="53" viewBox="0 0 203 53" fill="none" xmlns="http://www.w3.org/2000/svg">
<path d="M31.3511 6.28214C19.9412 6.28214 10.6589 15.6006 10.6589 27.055C10.6589 32.1644 12.5363 37.0854 15.8946 40.8756L10.3252 44.8542V48.6863L18.2516 43.1371C27.075 50.3825 40.1327 49.0633 47.3708 40.2055C53.8163 32.311 53.5868 20.8566 46.8076 13.2343L52.4187 9.29755V5.42358L44.4923 10.9728C40.7794 7.93642 36.1487 6.24026 31.3511 6.28214ZM52.0432 9.0672L45.6395 13.6113C41.9266 16.2497 39.6947 20.5216 39.6947 25.0656V27.6203L23.0075 39.3051L10.7007 47.9534V45.0218L17.1044 40.4777C20.8173 37.8392 23.0075 33.5674 23.0075 29.0233V26.4686L39.6947 14.7839L52.0015 6.13556L52.0432 9.0672Z" fill="black"/>
<path d="M69.0851 39.9123V11.3916H79.8275C82.122 11.3916 84.1662 11.7895 85.9183 12.6061C87.6705 13.4228 89.1306 14.4908 90.2778 15.8519C91.4251 17.213 92.3012 18.7417 92.8852 20.4378C93.4693 22.134 93.7613 23.872 93.7613 25.631C93.7613 27.39 93.4693 29.1281 92.8852 30.8242C92.3012 32.5204 91.4251 34.049 90.2778 35.4102C89.1306 36.7713 87.6705 37.8602 85.9183 38.6559C84.1662 39.4726 82.1428 39.8705 79.8275 39.8705H69.0851V39.9123ZM79.5563 16.6057H74.9882V34.6354H79.5563C81.4336 34.6354 82.9563 34.1956 84.187 33.3371C85.4177 32.4785 86.3146 31.3268 86.9195 29.9447C87.5245 28.5627 87.8165 27.1178 87.8165 25.631C87.8165 24.1443 87.5245 22.6994 86.9195 21.3383C86.3146 19.9562 85.4177 18.8254 84.187 17.9459C82.9563 17.0664 81.4336 16.6267 79.5563 16.6267V16.6057Z" fill="black"/>
<path d="M97.9122 39.9123V11.3916H117.478V16.5429H103.815V22.9297H115.705V27.8926H103.815V34.7191H117.666V39.8705H97.8914L97.9122 39.9123Z" fill="black"/>
<path d="M122.547 39.9123V11.3916H134.249C136.585 11.3916 138.504 11.8523 140.068 12.7737C141.633 13.695 142.78 14.8886 143.552 16.3335C144.324 17.7784 144.72 19.2861 144.72 20.8566C144.72 22.4272 144.324 24.0186 143.552 25.4635C142.78 26.9084 141.612 28.102 140.068 29.0234C138.525 29.9447 136.585 30.4054 134.249 30.4054H128.45V39.8914H122.547V39.9123ZM134.249 16.6057H128.45V25.275H134.249C135.25 25.275 136.084 25.0656 136.752 24.6468C137.419 24.228 137.92 23.6836 138.274 23.0344C138.629 22.3853 138.796 21.6733 138.796 20.9404C138.796 20.2075 138.629 19.5374 138.274 18.8673C137.92 18.1972 137.419 17.6528 136.752 17.2549C136.084 16.8361 135.25 16.6476 134.249 16.6476V16.6057Z" fill="black"/>
<path d="M148.6 39.9123V11.3916H160.302C162.638 11.3916 164.557 11.8523 166.121 12.7737C167.686 13.695 168.833 14.8886 169.605 16.3335C170.376 17.7784 170.773 19.2861 170.773 20.8566C170.773 22.4272 170.376 24.0186 169.605 25.4635C168.833 26.9084 167.665 28.102 166.121 29.0234C164.578 29.9447 162.638 30.4054 160.302 30.4054H154.503V39.8914H148.6V39.9123ZM160.302 16.6057H154.503V25.275H160.302C161.303 25.275 162.137 25.0656 162.805 24.6468C163.472 24.228 163.973 23.6836 164.327 23.0344C164.682 22.3853 164.849 21.6733 164.849 20.9404C164.849 20.2075 164.682 19.5374 164.327 18.8673C163.973 18.1972 163.472 17.6528 162.805 17.2549C162.137 16.8361 161.303 16.6476 160.302 16.6476V16.6057Z" fill="black"/>
<path d="M182.829 40.2894C181.14 40.2894 179.742 40.059 178.637 39.5984C177.531 39.1377 176.655 38.5723 176.008 37.8813C175.362 37.1902 174.861 36.5201 174.548 35.85C174.235 35.1799 173.985 34.3633 173.797 33.4419H179.2C179.346 33.9654 179.554 34.3842 179.826 34.7193C180.097 35.0543 180.493 35.3475 180.994 35.5988C181.515 35.85 182.204 35.9757 183.059 35.9757C184.143 35.9757 184.874 35.7663 185.27 35.3265C185.666 34.8868 185.875 34.447 185.875 34.0282C185.875 33.1069 185.124 32.4786 183.601 32.1855L180.848 31.641C179.68 31.4107 178.574 31.0756 177.531 30.615C176.488 30.1752 175.654 29.547 175.028 28.7303C174.402 27.9137 174.089 26.8666 174.089 25.5893C174.089 24.3119 174.402 23.244 175.049 22.2807C175.696 21.2965 176.613 20.5427 177.802 19.9773C178.991 19.4119 180.41 19.1396 182.078 19.1396C183.643 19.1396 184.936 19.3491 185.979 19.7679C187.022 20.1867 187.835 20.7102 188.461 21.3384C189.087 21.9666 189.546 22.5948 189.838 23.223C190.151 23.8512 190.38 24.5841 190.568 25.4427H185.353C185.04 24.7517 184.665 24.2281 184.185 23.8722C183.705 23.5162 182.996 23.3487 182.016 23.3487C181.035 23.3487 180.326 23.5371 179.951 23.9559C179.575 24.3747 179.367 24.7726 179.367 25.2123C179.367 25.7359 179.596 26.1128 180.034 26.3641C180.472 26.6153 181.056 26.8248 181.786 26.9713L184.435 27.5158C186.375 27.8927 187.982 28.5837 189.233 29.547C190.485 30.5103 191.11 31.8923 191.11 33.7351C191.11 34.9705 190.797 36.0804 190.151 37.0855C189.504 38.0907 188.586 38.8864 187.356 39.4518C186.125 40.0381 184.623 40.3103 182.829 40.3103V40.2894Z" fill="black"/>
</svg>
